<mxfile host="app.diagrams.net" agent="Mozilla/5.0 (X11; Ubuntu; Linux x86_64; rv:139.0) Gecko/20100101 Firefox/139.0" version="27.1.5">
  <diagram name="Pagina-1" id="SU850ifIlKUdHhGGcXAO">
    <mxGraphModel dx="911" dy="457" grid="1" gridSize="10" guides="1" tooltips="1" connect="1" arrows="1" fold="1" page="1" pageScale="1" pageWidth="827" pageHeight="1169" math="0" shadow="0">
      <root>
        <mxCell id="0" />
        <mxCell id="1" parent="0" />
        <mxCell id="y1h99UKeRVFHQPRYsZza-7" style="edgeStyle=none;curved=1;rounded=0;orthogonalLoop=1;jettySize=auto;html=1;entryX=0.5;entryY=0;entryDx=0;entryDy=0;fontSize=12;startSize=8;endSize=8;exitX=0.659;exitY=1.005;exitDx=0;exitDy=0;exitPerimeter=0;" parent="1" source="cZaVIaKvnOnAkZGbqZVH-8" target="cZaVIaKvnOnAkZGbqZVH-3" edge="1">
          <mxGeometry relative="1" as="geometry">
            <mxPoint x="230" y="204" as="targetPoint" />
          </mxGeometry>
        </mxCell>
        <mxCell id="y1h99UKeRVFHQPRYsZza-1" value="recursivePalindrome(s=&quot;radar&quot;)" style="rounded=0;whiteSpace=wrap;html=1;" parent="1" vertex="1">
          <mxGeometry x="60" y="140" width="200" height="30" as="geometry" />
        </mxCell>
        <mxCell id="cZaVIaKvnOnAkZGbqZVH-4" style="edgeStyle=none;curved=1;rounded=0;orthogonalLoop=1;jettySize=auto;html=1;entryX=0.001;entryY=0.529;entryDx=0;entryDy=0;fontSize=12;startSize=8;endSize=8;entryPerimeter=0;" edge="1" parent="1" target="cZaVIaKvnOnAkZGbqZVH-8">
          <mxGeometry relative="1" as="geometry">
            <mxPoint x="163" y="170" as="sourcePoint" />
            <mxPoint x="215" y="214" as="targetPoint" />
          </mxGeometry>
        </mxCell>
        <mxCell id="cZaVIaKvnOnAkZGbqZVH-6" value="recursivePalindrome(s=&quot;d&quot;)" style="rounded=0;whiteSpace=wrap;html=1;" vertex="1" parent="1">
          <mxGeometry x="470" y="360" width="200" height="30" as="geometry" />
        </mxCell>
        <mxCell id="cZaVIaKvnOnAkZGbqZVH-8" value="&lt;div&gt;&quot;r&quot; == &quot;r&quot; and recursivePalindrome(s=&quot;ada&quot;)&lt;/div&gt;" style="text;html=1;align=center;verticalAlign=middle;resizable=0;points=[];autosize=1;strokeColor=none;fillColor=none;" vertex="1" parent="1">
          <mxGeometry x="215" y="180" width="250" height="30" as="geometry" />
        </mxCell>
        <mxCell id="cZaVIaKvnOnAkZGbqZVH-3" value="recursivePalindrome(s=&quot;ada&quot;)" style="rounded=0;whiteSpace=wrap;html=1;" vertex="1" parent="1">
          <mxGeometry x="280" y="230" width="200" height="30" as="geometry" />
        </mxCell>
        <mxCell id="cZaVIaKvnOnAkZGbqZVH-21" value="&quot;a&quot; == &quot;a&quot; and recursivePalindrome(s=&quot;d&quot;)" style="text;html=1;align=center;verticalAlign=middle;whiteSpace=wrap;rounded=0;" vertex="1" parent="1">
          <mxGeometry x="400" y="290" width="230" height="30" as="geometry" />
        </mxCell>
        <mxCell id="cZaVIaKvnOnAkZGbqZVH-22" value="" style="endArrow=classic;html=1;rounded=0;exitX=0.5;exitY=1;exitDx=0;exitDy=0;entryX=0;entryY=0.5;entryDx=0;entryDy=0;" edge="1" parent="1" source="cZaVIaKvnOnAkZGbqZVH-3" target="cZaVIaKvnOnAkZGbqZVH-21">
          <mxGeometry width="50" height="50" relative="1" as="geometry">
            <mxPoint x="410" y="330" as="sourcePoint" />
            <mxPoint x="460" y="280" as="targetPoint" />
          </mxGeometry>
        </mxCell>
        <mxCell id="cZaVIaKvnOnAkZGbqZVH-23" value="" style="endArrow=classic;html=1;rounded=0;exitX=0.581;exitY=1.081;exitDx=0;exitDy=0;exitPerimeter=0;entryX=0.469;entryY=0.062;entryDx=0;entryDy=0;entryPerimeter=0;" edge="1" parent="1" source="cZaVIaKvnOnAkZGbqZVH-21" target="cZaVIaKvnOnAkZGbqZVH-6">
          <mxGeometry width="50" height="50" relative="1" as="geometry">
            <mxPoint x="410" y="330" as="sourcePoint" />
            <mxPoint x="460" y="280" as="targetPoint" />
          </mxGeometry>
        </mxCell>
      </root>
    </mxGraphModel>
  </diagram>
</mxfile>
